Coordinates
version=1
nRows=17
nColumns=40
inDegrees=yes

Units are S.I. units (second, meters, Newtons, ...)
If the header above contains a line with 'inDegrees', this indicates whether rotational values are in degrees (yes) or radians (no).

endheader
time	pelvis_tilt	pelvis_list	pelvis_rotation	pelvis_tx	pelvis_ty	pelvis_tz	hip_flexion_r	hip_adduction_r	hip_rotation_r	knee_angle_r	knee_angle_r_beta	ankle_angle_r	subtalar_angle_r	mtp_angle_r	hip_flexion_l	hip_adduction_l	hip_rotation_l	knee_angle_l	knee_angle_l_beta	ankle_angle_l	subtalar_angle_l	mtp_angle_l	lumbar_extension	lumbar_bending	lumbar_rotation	arm_flex_r	arm_add_r	arm_rot_r	elbow_flex_r	pro_sup_r	wrist_flex_r	wrist_dev_r	arm_flex_l	arm_add_l	arm_rot_l	elbow_flex_l	pro_sup_l	wrist_flex_l	wrist_dev_l
      3.90000000	     -3.24050461	     -9.37157395	      5.10756832	     -0.36719916	      0.78261370	     -1.06026044	     67.66635800	     -7.58621942	    -12.99610884	     42.04853507	      0.73388538	     -8.19950150	      0.00000000	      0.00000000	     57.70495258	     -3.30340355	      0.44251330	     92.58200533	      1.61586082	     26.02115376	      0.00000000	      0.00000000	    -22.38930918	      7.52180474	      1.16066746	     89.88560171	    -19.76810551	     18.32662591	     47.22826214	     77.35600728	      0.00000000	      0.00000000	     89.92880358	    -22.71363814	     27.27007731	     43.87969639	     78.54097104	      0.00000000	      0.00000000
      3.90500000	     -3.26607074	     -9.41431941	      5.09582449	     -0.36718907	      0.78160752	     -1.06014215	     67.80127215	     -7.58693479	    -13.00429286	     42.21381325	      0.73677003	     -8.14441515	      0.00000000	      0.00000000	     57.85910070	     -3.40817721	      0.39097387	     92.82561460	      1.62011260	     26.13501603	      0.00000000	      0.00000000	    -22.37600849	      7.56718200	      1.18476299	     89.88873495	    -19.86620381	     18.71621887	     47.36327769	     75.53371431	      0.00000000	      0.00000000	     89.92921338	    -22.77786737	     27.63004892	     44.03039238	     76.74660462	      0.00000000	      0.00000000
      3.91000000	     -3.29682550	     -9.39683104	      5.16354627	     -0.36719819	      0.78072767	     -1.06016878	     67.88889008	     -7.71202908	    -13.05375838	     42.30962506	      0.73844226	     -8.03726974	      0.00000000	      0.00000000	     57.98977114	     -3.36577819	      0.38398492	     92.96184655	      1.62249030	     26.01061340	      0.00000000	      0.00000000	    -22.41559282	      7.58121154	      1.08196988	     89.88650068	    -19.88245485	     17.73815712	     47.49021228	     84.40286812	      0.00000000	      0.00000000	     89.92956801	    -22.88669141	     26.67764623	     44.15153719	     85.66705907	      0.00000000	      0.00000000
      3.91500000	     -3.27164077	     -9.23887895	      5.07541664	     -0.36695718	      0.78001220	     -1.06027847	     67.95999610	     -7.77475808	    -12.94097344	     42.43808722	      0.74068435	     -8.04518212	      0.00000000	      0.00000000	     57.95307558	     -3.32950874	      0.19214844	     93.07052170	      1.62438704	     26.10654742	      0.00000000	      0.00000000	    -22.47693195	      7.41268207	      1.11362476	     89.88651153	    -19.83107334	     17.59054374	     47.45482430	     84.55560962	      0.00000000	      0.00000000	     89.92976239	    -22.84067613	     26.61347881	     44.20292677	     85.63532202	      0.00000000	      0.00000000
      3.92000000	     -3.33923293	     -9.34979678	      5.15902656	     -0.36714392	      0.77902874	     -1.06011077	     68.07726875	     -7.81985179	    -13.07815856	     42.46531775	      0.74115961	     -8.02865414	      0.00000000	      0.00000000	     58.16565886	     -3.36772357	      0.30693865	     93.24497141	      1.62743176	     26.18968241	      0.00000000	      0.00000000	    -22.42455028	      7.55449975	      1.07739491	     89.88770917	    -19.79309311	     17.51585922	     47.49891419	     84.65569630	      0.00000000	      0.00000000	     89.93008224	    -22.79915626	     26.56200746	     44.20000492	     85.52266153	      0.00000000	      0.00000000
      3.92500000	     -3.35365684	     -9.34788539	      5.20677123	     -0.36716275	      0.77809146	     -1.06009998	     68.16623491	     -7.89504180	    -13.09854596	     42.53417639	      0.74236142	     -8.01685155	      0.00000000	      0.00000000	     58.28593015	     -3.33148444	      0.33102422	     93.42088028	      1.63050195	     26.26162755	      0.00000000	      0.00000000	    -22.42752127	      7.56354478	      1.07834373	     89.88817692	    -19.81345522	     17.40858901	     47.50727720	     84.66117294	      0.00000000	      0.00000000	     89.93039238	    -22.66262989	     26.35682867	     44.18640866	     85.56788080	      0.00000000	      0.00000000
      3.93000000	     -3.34686654	     -9.32276789	      5.22110065	     -0.36712135	      0.77729265	     -1.06011487	     68.23243164	     -7.95367581	    -13.08734800	     42.63068757	      0.74404586	     -7.94452073	      0.00000000	      0.00000000	     58.35920434	     -3.31891877	      0.29473112	     93.55864926	      1.63290647	     26.23880323	      0.00000000	      0.00000000	    -22.44925299	      7.56223723	      1.01632455	     89.88861439	    -19.68095645	     17.28308064	     47.42800447	     84.55496335	      0.00000000	      0.00000000	     89.93081916	    -22.68638889	     26.32051691	     44.20332290	     85.62662900	      0.00000000	      0.00000000
      3.93500000	     -3.34626482	     -9.29106052	      5.20914845	     -0.36711451	      0.77648026	     -1.06003462	     68.30861668	     -7.98083309	    -13.06479978	     42.67991589	      0.74490506	     -8.00609508	      0.00000000	      0.00000000	     58.42499802	     -3.30369838	      0.27860414	     93.70678176	      1.63549187	     26.33500109	      0.00000000	      0.00000000	    -22.49171002	      7.52307230	      1.09969957	     89.88919663	    -19.78333613	     17.26700664	     47.51248814	     84.57009937	      0.00000000	      0.00000000	     89.93113260	    -22.51884629	     26.10276022	     44.25634216	     85.63954203	      0.00000000	      0.00000000
      3.94000000	     -3.38680333	     -9.25830490	      5.17089867	     -0.36708574	      0.77563321	     -1.05994485	     68.42414864	     -7.98388265	    -13.01006084	     42.72500974	      0.74569209	     -8.02083033	      0.00000000	      0.00000000	     58.52970062	     -3.30328113	      0.22518660	     93.83908847	      1.63780106	     26.41104678	      0.00000000	      0.00000000	    -22.47450954	      7.48436742	      1.10887973	     89.88938871	    -19.71461045	     17.11324311	     47.50338394	     84.72111381	      0.00000000	      0.00000000	     89.93131466	    -22.52339131	     26.11699052	     44.28721061	     85.55311839	      0.00000000	      0.00000000
      3.94500000	     -3.40750100	     -9.38687482	      5.18706060	     -0.36704225	      0.77471868	     -1.05982258	     68.48958075	     -7.94386570	    -13.11590149	     42.75100524	      0.74614580	     -8.06786713	      0.00000000	      0.00000000	     58.68655774	     -3.37356822	      0.37263044	     94.03670889	      1.64125019	     26.46281030	      0.00000000	      0.00000000	    -22.46130340	      7.62671333	      1.14628007	     89.88972577	    -19.69493928	     17.07003906	     47.53210141	     84.61359881	      0.00000000	      0.00000000	     89.93159793	    -22.46336295	     26.01737931	     44.28576916	     85.54174857	      0.00000000	      0.00000000
      3.95000000	     -3.42730028	     -9.32835748	      5.16710205	     -0.36710091	      0.77389132	     -1.05970936	     68.59790681	     -7.96118528	    -13.00622570	     42.82126233	      0.74737202	     -8.05502775	      0.00000000	      0.00000000	     58.78355524	     -3.33390602	      0.32995588	     94.17179785	      1.64360794	     26.41267770	      0.00000000	      0.00000000	    -22.47266973	      7.56593087	      1.13411747	     89.89071401	    -19.62756276	     16.99026998	     47.51037996	     84.58690923	      0.00000000	      0.00000000	     89.93187215	    -22.45915588	     25.98405726	     44.34273493	     85.41028188	      0.00000000	      0.00000000
      3.95500000	     -3.42765328	     -9.30145192	      5.15354867	     -0.36709082	      0.77310387	     -1.05969930	     68.67700242	     -7.98882089	    -12.97910595	     42.90912574	      0.74890552	     -8.05740307	      0.00000000	      0.00000000	     58.83675893	     -3.28838753	      0.33697488	     94.30606359	      1.64595131	     26.59004564	      0.00000000	      0.00000000	    -22.50356934	      7.53993689	      1.15810564	     89.89096238	    -19.60242237	     16.84630429	     47.53160555	     84.65394928	      0.00000000	      0.00000000	     89.93192134	    -22.36611660	     25.76936805	     44.35431789	     85.61316838	      0.00000000	      0.00000000
      3.96000000	     -3.43719018	     -9.30137479	      5.13954513	     -0.36702157	      0.77230508	     -1.05962323	     68.76255852	     -7.99430448	    -12.96297930	     42.99435623	      0.75039308	     -8.06862722	      0.00000000	      0.00000000	     58.91873875	     -3.26243101	      0.36047252	     94.43567818	      1.64821352	     26.58532806	      0.00000000	      0.00000000	    -22.50849596	      7.54750322	      1.16989472	     89.89123152	    -19.57842900	     16.81073787	     47.55584410	     84.45831308	      0.00000000	      0.00000000	     89.93213673	    -22.34794424	     25.71970211	     44.37721241	     85.73283807	      0.00000000	      0.00000000
      3.96500000	     -3.42980419	     -9.31183868	      5.10037968	     -0.36699315	      0.77162233	     -1.05948851	     68.82030931	     -7.95498857	    -12.94580232	     43.04384469	      0.75125681	     -8.11805290	      0.00000000	      0.00000000	     58.97640587	     -3.27652680	      0.38224191	     94.56262833	      1.65042921	     26.65935850	      0.00000000	      0.00000000	    -22.55281013	      7.55643601	      1.22399840	     89.89171829	    -19.53622687	     16.69474882	     47.56438255	     84.59349269	      0.00000000	      0.00000000	     89.93243519	    -22.31001856	     25.65300649	     44.40282220	     85.58259920	      0.00000000	      0.00000000
      3.97000000	     -3.44427719	     -9.35968832	      5.09145188	     -0.36694410	      0.77076349	     -1.05936253	     68.89712478	     -7.93390040	    -12.99044657	     43.05680005	      0.75148293	     -8.16584320	      0.00000000	      0.00000000	     59.08520074	     -3.27782950	      0.46483542	     94.72706041	      1.65329909	     26.72954621	      0.00000000	      0.00000000	    -22.54886549	      7.60220737	      1.25378293	     89.89193051	    -19.50759167	     16.63488167	     47.58204492	     84.66171016	      0.00000000	      0.00000000	     89.93261443	    -22.26741365	     25.56340647	     44.44388458	     85.58511039	      0.00000000	      0.00000000
      3.97500000	     -3.49838585	     -9.34755445	      5.06162103	     -0.36694900	      0.76983381	     -1.05931190	     69.04660356	     -7.92674675	    -12.90207952	     43.15284915	      0.75315930	     -8.15795240	      0.00000000	      0.00000000	     59.22623891	     -3.23513771	      0.48394246	     94.87882413	      1.65594787	     26.76287519	      0.00000000	      0.00000000	    -22.51115504	      7.59285055	      1.29537071	     89.89255660	    -19.50571482	     16.58250614	     47.59551036	     84.52520189	      0.00000000	      0.00000000	     89.93281256	    -22.20010768	     25.46842566	     44.45449743	     85.68827894	      0.00000000	      0.00000000
      3.98000000	     -3.45892604	     -9.37962476	      5.05055491	     -0.36687091	      0.76919831	     -1.05923091	     69.06042960	     -7.90358965	    -12.94375459	     43.19447843	      0.75388587	     -8.11270890	      0.00000000	      0.00000000	     59.25577006	     -3.22996552	      0.55373377	     95.02220219	      1.65845029	     26.83234843	      0.00000000	      0.00000000	    -22.58040998	      7.63169198	      1.31270165	     89.89287895	    -19.44692377	     16.45645561	     47.63651312	     84.62499962	      0.00000000	      0.00000000	     89.93307371	    -22.19327380	     25.40865274	     44.50019426	     85.61431930	      0.00000000	      0.00000000
